<!--?xml version="1.0" standalone="no"?-->
              <svg id="sw-js-blob-svg" viewBox="0 0 100 100" xmlns="http://www.w3.org/2000/svg" version="1.1">
                    <defs> 
                        <linearGradient id="sw-gradient" x1="0" x2="1" y1="1" y2="0">
                            <stop id="stop1" stop-color="rgba(14.345, 96.835, 11.515, 1)" offset="0%"></stop>
                            <stop id="stop2" stop-color="rgba(159.979, 237.995, 160.034, 1)" offset="100%"></stop>
                        </linearGradient>
                    </defs>
                <path fill="none" d="M11.5,-14C16.6,-12.2,23.4,-11,26.2,-7.4C29,-3.7,27.7,2.5,26.8,9.7C25.8,17,25.2,25.4,20.8,31.6C16.4,37.9,8.2,42,1.9,39.4C-4.4,36.8,-8.9,27.5,-16.5,22.3C-24.1,17.1,-34.9,16,-40.5,10.4C-46.2,4.8,-46.8,-5.3,-40.7,-9.9C-34.7,-14.5,-22,-13.7,-14.1,-14.5C-6.2,-15.3,-3.1,-17.8,0.1,-17.9C3.2,-18,6.5,-15.7,11.5,-14Z" width="100%" height="100%" transform="translate(50 50)" stroke-width="1" style="transition: all 0.3s ease 0s;" stroke="url(#sw-gradient)"></path>
              </svg>