<!--?xml version="1.0" standalone="no"?-->
              <svg id="sw-js-blob-svg" viewBox="0 0 100 100" xmlns="http://www.w3.org/2000/svg" version="1.1">
                    <defs> 
                        <linearGradient id="sw-gradient" x1="0" x2="1" y1="1" y2="0">
                            <stop id="stop1" stop-color="rgba(14.345, 96.835, 11.515, 1)" offset="0%"></stop>
                            <stop id="stop2" stop-color="rgba(159.979, 237.995, 160.034, 1)" offset="100%"></stop>
                        </linearGradient>
                    </defs>
                <path fill="url(#sw-gradient)" d="M13.5,-16.7C20.8,-13.4,32.2,-13.7,33,-10.8C33.9,-7.9,24.2,-1.6,21.4,6.9C18.6,15.4,22.6,26.1,20.2,29.4C17.8,32.8,8.9,28.8,3.1,24.5C-2.6,20.2,-5.3,15.5,-8.1,12.3C-11,9.1,-14.2,7.4,-13.5,5.3C-12.8,3.3,-8.4,1,-9.4,-5.2C-10.4,-11.5,-16.8,-21.8,-16.2,-27.3C-15.5,-32.8,-7.8,-33.5,-2.3,-30.3C3.1,-27.1,6.3,-20,13.5,-16.7Z" width="100%" height="100%" transform="translate(50 50)" stroke-width="0" style="transition: all 0.3s ease 0s;" stroke="url(#sw-gradient)"></path>
              </svg>