<!--?xml version="1.0" standalone="no"?-->
              <svg id="sw-js-blob-svg" viewBox="0 0 100 100" xmlns="http://www.w3.org/2000/svg" version="1.1">
                    <defs> 
                        <linearGradient id="sw-gradient" x1="0" x2="1" y1="1" y2="0">
                            <stop id="stop1" stop-color="rgba(14.345, 96.835, 11.515, 1)" offset="0%"></stop>
                            <stop id="stop2" stop-color="rgba(159.979, 237.995, 160.034, 1)" offset="100%"></stop>
                        </linearGradient>
                    </defs>
                <path fill="url(#sw-gradient)" d="M8.7,-4C16.2,-6.4,30.7,-10.6,31.5,-9.8C32.2,-9.1,19.3,-3.5,15,3.4C10.7,10.2,15,18.3,13.9,20.5C12.8,22.7,6.4,18.9,0.7,17.9C-4.9,16.9,-9.9,18.7,-16,18.1C-22,17.6,-29.2,14.7,-33.5,9.1C-37.7,3.5,-39.1,-4.8,-35.5,-10.2C-32,-15.7,-23.5,-18.2,-16.8,-16.1C-10.1,-13.9,-5,-7.1,-2.2,-4C0.6,-0.9,1.1,-1.6,8.7,-4Z" width="100%" height="100%" transform="translate(50 50)" stroke-width="0" style="transition: all 0.3s ease 0s;" stroke="url(#sw-gradient)"></path>
              </svg>