<!--?xml version="1.0" standalone="no"?-->
              <svg id="sw-js-blob-svg" viewBox="0 0 100 100" xmlns="http://www.w3.org/2000/svg" version="1.1">
                    <defs> 
                        <linearGradient id="sw-gradient" x1="0" x2="1" y1="1" y2="0">
                            <stop id="stop1" stop-color="rgba(14.345, 96.835, 11.515, 1)" offset="0%"></stop>
                            <stop id="stop2" stop-color="rgba(159.979, 237.995, 160.034, 1)" offset="100%"></stop>
                        </linearGradient>
                    </defs>
                <path fill="url(#sw-gradient)" d="M12,-15.4C16.7,-10.3,22.5,-7.7,25.6,-2.7C28.7,2.3,29.1,9.7,27.2,18.2C25.3,26.8,21,36.5,15.2,36.1C9.4,35.7,2,25.2,-6.8,21C-15.7,16.8,-26.1,18.9,-33,15.1C-39.9,11.3,-43.5,1.5,-40.8,-6C-38,-13.5,-29,-18.7,-21.2,-23.2C-13.3,-27.7,-6.7,-31.6,-1.5,-29.8C3.6,-28,7.3,-20.5,12,-15.4Z" width="100%" height="100%" transform="translate(50 50)" stroke-width="0" style="transition: all 0.3s ease 0s;" stroke="url(#sw-gradient)"></path>
              </svg>